<svg width="18" height="19" viewBox="0 0 18 19" fill="none" xmlns="http://www.w3.org/2000/svg">
<path d="M12.504 7.385C12.0927 7.385 11.7393 7.241 11.444 6.953C11.1487 6.665 11.0007 6.309 11 5.885V1.5C11 1.07467 11.1467 0.718333 11.44 0.431C11.7333 0.143667 12.0867 0 12.5 0C12.9253 0 13.282 0.143667 13.57 0.431C13.8567 0.719 14 1.07533 14 1.5V5.885C14 6.30967 13.8567 6.66567 13.57 6.953C13.2833 7.24033 12.928 7.38433 12.504 7.385ZM1.615 18.5C1.171 18.5 0.791 18.3417 0.475 18.025C0.158333 17.709 0 17.329 0 16.885V2.115C0 1.671 0.158333 1.291 0.475 0.975C0.791 0.658333 1.171 0.5 1.615 0.5H8.5V1.5H1.615C1.43567 1.5 1.28833 1.55767 1.173 1.673C1.05767 1.78833 1 1.93567 1 2.115V16.885C1 17.0643 1.05767 17.2117 1.173 17.327C1.28833 17.4423 1.43567 17.5 1.615 17.5H11.385C11.5643 17.5 11.7117 17.4423 11.827 17.327C11.9423 17.2117 12 17.0643 12 16.885V15.23H13V16.876C13 17.3287 12.8417 17.712 12.525 18.026C12.209 18.3413 11.829 18.499 11.385 18.499L1.615 18.5ZM3.5 15.23V14H9.5V15.23H3.5ZM3.5 12.23V11.23H7.5V12.23H3.5ZM13 13H12V10.477C10.768 10.359 9.71 9.86967 8.826 9.009C7.942 8.14767 7.5 7.10633 7.5 5.885H8.5C8.5 6.91567 8.89933 7.77567 9.698 8.465C10.4967 9.15433 11.43 9.49933 12.498 9.5C13.5847 9.5 14.5233 9.155 15.314 8.465C16.1047 7.775 16.5 6.915 16.5 5.885H17.5C17.5 7.11967 17.0623 8.164 16.187 9.018C15.311 9.87267 14.2487 10.359 13 10.477V13Z" fill="black"/>
</svg>
