<svg width="18" height="20" viewBox="0 0 18 20" fill="none" xmlns="http://www.w3.org/2000/svg">
<path d="M1.615 19.173C1.16833 19.173 0.787333 19.0157 0.472 18.701C0.157333 18.3863 0 18.0053 0 17.558V2.788C0 2.34133 0.157333 1.96033 0.472 1.645C0.786667 1.33033 1.16767 1.173 1.615 1.173H8.323L7.323 2.173H1.615C1.43567 2.173 1.28833 2.23067 1.173 2.346C1.05767 2.46133 1 2.60867 1 2.788V17.558C1 17.7373 1.05767 17.8847 1.173 18C1.28833 18.1153 1.43567 18.173 1.615 18.173H11.385C11.5643 18.173 11.7117 18.1153 11.827 18C11.9423 17.8847 12 17.7373 12 17.558V15.673H13V17.558C13 18.0047 12.8427 18.3857 12.528 18.701C12.2133 19.0157 11.8323 19.173 11.385 19.173H1.615ZM3.5 15.673V14.673H9.5V15.673H3.5ZM3.5 12.903V11.903H7.5V12.903H3.5ZM11.5 12.153L8.212 8.865H5.5V4.865H8.212L11.5 1.577V12.153ZM13.5 9.796V3.935C14.01 4.27167 14.3877 4.71133 14.633 5.254C14.8777 5.796 15 6.333 15 6.865C15 7.397 14.8743 7.93433 14.623 8.477C14.3717 9.01967 13.9973 9.45867 13.5 9.796ZM13.5 13.731V12.669C14.5253 12.1757 15.3653 11.3973 16.02 10.334C16.6747 9.27067 17.0013 8.11433 17 6.865C16.9987 5.61567 16.672 4.45967 16.02 3.397C15.3653 2.33367 14.5253 1.555 13.5 1.061V0C14.7973 0.514 15.8717 1.40333 16.723 2.668C17.5743 3.93267 18 5.33167 18 6.865C18 8.39833 17.5743 9.79733 16.723 11.062C15.8717 12.3267 14.7973 13.2163 13.5 13.731Z" fill="black"/>
</svg>
